<svg xmlns="http://www.w3.org/2000/svg" style="user-select:auto" fill-rule="evenodd" clip-rule="evenodd" viewBox="0 0 189.049 35.705">
    <defs />
    <rect style="user-select:auto" width="100%" height="100%" fill="none" />
    <g style="user-select:auto" class="currentLayer">
      <g style="user-select:auto" fill="#002e6b">
        <path style="user-select:auto" d="M74.231 9.16v6.626h-7.466V9.16h-4.116v17.385h4.116v-6.99h7.466v6.99h4.116V9.16zM93.423 9.16l-4.304 6.885L84.82 9.16h-4.855l7.104 11.363v6.022h4.11v-6.022L98.284 9.16h-4.86zM111.513 9.16v12.744a.851.851 0 01-.874.873h-6.593V9.161h-4.115v17.385h12.157c1.082 0 1.951-.316 2.587-.959.63-.633.947-1.506.947-2.589V9.161h-4.11zM131.593 9.16h-12.157v17.385h4.111V12.929h6.602c.531 0 .868.412.868.863v12.753h4.111V12.718c0-1.093-.323-1.966-.948-2.599-.641-.643-1.504-.959-2.587-.959M151.098 9.16h-12.157v17.385h12.157c1.082 0 1.946-.316 2.576-.959.636-.633.953-1.506.953-2.589V12.718c0-1.093-.317-1.966-.953-2.599-.63-.643-1.499-.959-2.576-.959m-.58 4.66v8.055c0 .47-.337.901-.874.901h-6.598v-9.848h6.568c.541 0 .903.374.903.892M161.796 9.16c-1.077 0-1.951.316-2.581.959-.636.633-.948 1.515-.948 2.599v13.827h4.101v-5.38h7.472v5.38h4.11V9.16h-12.153zm8.043 3.769v4.478h-7.472v-3.596c0-.432.333-.882.879-.882zM177.95 9.16h4.116v17.39h-4.116zM30.495 29.968c12.987 0 23.516-5.427 23.516-12.111 0-6.693-10.529-12.12-23.516-12.12-12.982 0-23.511 5.427-23.511 12.12 0 6.684 10.529 12.111 23.511 12.111m4.428-5.945c-.393.911-1.068 2.867-2.616 3.644-.472.24-1.052.345-1.569.364H30.5c-4.339 0-8.38-.604-11.761-1.64l-.129-.058c-.313-.096-.472-.249-.472-.422 0-.153.085-.278.193-.383l.213-.192c.785-.652 3.133-2.368 7.561-4.075 1.553-.594 3.499-1.342 5.535-1.774 1.191-.249 5.62-.93 3.282 4.536m11.879-12.216c.085-.144.193-.269.398-.278.109-.01.258.019.486.163 2.76 1.707 4.399 3.845 4.399 6.156 0 4.171-5.337 7.767-12.972 9.34-.486.096-.814.086-.923-.029-.08-.077-.099-.211 0-.383l.203-.278c4.156-4.929 7.322-12.207 8.221-14.307l.189-.383m-20.661-.153c.393-.911 1.068-2.867 2.616-3.634.472-.24 1.052-.355 1.569-.364h.233c4.343 0 8.379.604 11.765 1.64l.129.048c.313.105.471.249.471.432 0 .153-.084.269-.193.383l-.214.182c-.779.662-3.132 2.368-7.56 4.075-1.558.604-3.5 1.342-5.53 1.774-1.196.259-5.625.94-3.286-4.536m-4.264-3.136c.492-.096.814-.096.933.029.07.077.09.211-.003.374l-.204.278c-4.155 4.938-7.322 12.197-8.226 14.307l-.189.383c-.08.144-.193.269-.393.278-.109.01-.263-.019-.491-.163-2.76-1.707-4.399-3.845-4.399-6.156 0-4.171 5.337-7.767 12.971-9.33" />
      </g>
    </g>
  </svg>
